<?xml version="1.0" encoding="UTF-8"?>
<svg width="14px" height="29px" viewBox="0 0 14 29" version="1.1" xmlns="http://www.w3.org/2000/svg" xmlns:xlink="http://www.w3.org/1999/xlink">
    <!-- Generator: Sketch 47.1 (45422) - http://www.bohemiancoding.com/sketch -->
    <title>if_1_Media_social_website_facebook_2657542</title>
    <desc>Created with Sketch.</desc>
    <defs></defs>
    <g id="Welcome" stroke="none" stroke-width="1" fill="none" fill-rule="evenodd">
        <g id="Desktop" transform="translate(-20.000000, -22.000000)" fill="#FFFFFF">
            <g id="if_1_Media_social_website_facebook_2657542" transform="translate(20.000000, 22.000000)">
                <path d="M9.43960451,8.76162608 L9.43960451,6.52042176 C9.43960451,5.44522487 10.1515592,5.18785709 10.6672563,5.18785709 C11.1667143,5.18785709 13.8016091,5.18785709 13.8016091,5.18785709 L13.8016091,0.402141203 L9.48543713,0.402141203 C4.68497788,0.402141203 3.60999467,3.94567563 3.60999467,6.24777644 L3.60999467,8.76151925 L0.822965525,8.76151925 L0.822965525,12.1386033 L0.822965525,14.3500004 L3.63969506,14.3500004 C3.63969506,20.6953073 3.63969506,28.3129234 3.63969506,28.3129234 L9.22817619,28.3129234 C9.22817619,28.3129234 9.22817619,20.5892192 9.22817619,14.3500004 L13.3619792,14.3500004 L13.5443481,12.1540945 L13.8776763,8.76162608 L9.43960451,8.76162608 Z" id="Shape"></path>
            </g>
        </g>
    </g>
</svg>