<?xml version="1.0" encoding="UTF-8"?>
<svg width="29px" height="29px" viewBox="0 0 29 29" version="1.1" xmlns="http://www.w3.org/2000/svg" xmlns:xlink="http://www.w3.org/1999/xlink">
    <!-- Generator: Sketch 47.1 (45422) - http://www.bohemiancoding.com/sketch -->
    <title>if_2_Media_social_website_instagram_2657553</title>
    <desc>Created with Sketch.</desc>
    <defs></defs>
    <g id="Welcome" stroke="none" stroke-width="1" fill="none" fill-rule="evenodd">
        <g id="Desktop" transform="translate(-68.000000, -24.000000)" fill="#FFFFFF">
            <g id="if_2_Media_social_website_instagram_2657553" transform="translate(68.000000, 24.000000)">
                <path d="M7.35352841,14.3500004 C7.35352841,10.4883085 10.4884154,7.33825087 14.3497867,7.33825087 C18.2268629,7.33825087 21.3617499,10.4882017 21.3617499,14.3500004 C21.3617499,18.2265424 18.2268629,21.3617499 14.3497867,21.3617499 C10.4883085,21.3617499 7.35352841,18.2265424 7.35352841,14.3500004 L7.35352841,14.3500004 Z M21.5893104,0.64476562 L7.1263952,0.64476562 C3.56758324,0.64476562 0.6452998,3.55209203 0.6452998,7.12660887 L0.6452998,21.5890968 C0.6452998,25.1473746 3.56769007,28.070299 7.1263952,28.070299 L21.5893104,28.070299 C25.1632931,28.070299 28.0705127,25.1473746 28.0705127,21.5890968 L28.0705127,7.12660887 C28.0705127,3.55209203 25.1632931,0.64476562 21.5893104,0.64476562 L21.5893104,0.64476562 Z M7.1263952,2.26535998 L21.5893104,2.26535998 C24.2700378,2.26535998 26.4502388,4.44556099 26.4502388,7.12660887 L26.4502388,21.5890968 C26.4502388,24.26929 24.2700378,26.4497047 21.5893104,26.4497047 L7.1263952,26.4497047 C4.44566782,26.4497047 2.26557365,24.26929 2.26557365,21.5890968 L2.26557365,7.12660887 C2.26557365,4.44556099 4.44566782,2.26535998 7.1263952,2.26535998 L7.1263952,2.26535998 Z M23.0273222,4.30966567 C22.2398345,4.30966567 21.6044811,4.94555318 21.6044811,5.73282721 C21.6044811,6.52052859 22.2398345,7.15652294 23.0273222,7.15652294 C23.8148099,7.15652294 24.4512316,6.52052859 24.4512316,5.73282721 C24.4512316,4.94555318 23.8148099,4.30966567 23.0273222,4.30966567 L23.0273222,4.30966567 Z M23.1939862,14.3500004 C23.1939862,9.47336711 19.2419112,5.50601452 14.3497867,5.50601452 C9.47368762,5.50601452 5.50612135,9.47347395 5.50612135,14.3500004 C5.50612135,19.2415907 9.47379445,23.1941999 14.3497867,23.1941999 C19.2419112,23.1941999 23.1939862,19.2415907 23.1939862,14.3500004 L23.1939862,14.3500004 Z" id="Shape"></path>
            </g>
        </g>
    </g>
</svg>