<?xml version="1.0" encoding="UTF-8"?>
<svg width="156px" height="156px" viewBox="0 0 156 156" version="1.1" xmlns="http://www.w3.org/2000/svg" xmlns:xlink="http://www.w3.org/1999/xlink">
    <!-- Generator: Sketch 47.1 (45422) - http://www.bohemiancoding.com/sketch -->
    <title>CoveredInSnow_logo</title>
    <desc>Created with Sketch.</desc>
    <defs>
        <rect id="path-1" x="0" y="0" width="156" height="156"></rect>
        <polygon id="path-3" points="89.4328375 11.8314969 0.0793046044 11.8314969 0.0793046044 0.0465746179 89.4328375 0.0465746179"></polygon>
        <polygon id="path-5" points="0.00512481836 39.2210251 0.00512481836 0.0300712494 76.6873549 0.0300712494 153.369585 0.0300712494 153.369585 39.2210251"></polygon>
    </defs>
    <g id="Welcome" stroke="none" stroke-width="1" fill="none" fill-rule="evenodd">
        <g id="Desktop" transform="translate(-848.000000, -22.000000)">
            <g id="Logo" transform="translate(848.000000, 22.000000)">
                <g id="CoveredInSnow_logo">
                    <mask id="mask-2" fill="white">
                        <use xlink:href="#path-1"></use>
                    </mask>
                    <use id="Mask" fill="#FFFFFF" xlink:href="#path-1"></use>
                    <g mask="url(#mask-2)">
                        <g transform="translate(78.000000, 78.000000) rotate(-45.000000) translate(-78.000000, -78.000000) translate(-4.000000, 50.000000)">
                            <polygon id="Fill-1" fill="#1A1919" points="35.5099297 54.9220246 40.7180527 54.9220246 40.7180527 43.5588471 35.5099297 43.5588471"></polygon>
                            <g id="Group-7" transform="translate(43.558847, 43.558847)">
                                <mask id="mask-4" fill="white">
                                    <use xlink:href="#path-3"></use>
                                </mask>
                                <g id="Clip-3"></g>
                                <polyline id="Fill-2" fill="#1A1919" mask="url(#mask-4)" points="13.6188334 2.6768826 11.6958465 0.0465746179 0.0793046044 0.0465746179 0.0793046044 11.4639605 5.51231163 11.4639605 5.51231163 0.182781788 13.761787 11.4639605 19.0481618 11.4639605 19.0481618 0.0465746179 13.6188334 0.0465746179 13.6188334 2.6768826"></polyline>
                                <path d="M41.8164538,0.0465746179 L28.4199642,0.0465746179 C29.1884574,2.01034235 31.118545,3.20009654 34.4497661,3.78069247 L35.2075657,3.90969472 C37.6809796,4.3253496 38.939074,4.54038195 38.939074,5.57248578 C38.939074,6.56170322 37.8525069,6.96286249 36.4085129,6.96286249 C33.3489122,6.96286249 31.461685,5.84490012 29.8603651,4.89882639 L27.2011371,9.34245665 C29.5029383,10.9909236 32.7341518,11.8366432 36.3369933,11.8366432 C40.5976268,11.8366432 44.869125,9.97322965 44.869125,4.88441656 C44.869125,2.71650962 43.8536497,1.09660495 41.8164538,0.0465746179" id="Fill-4" fill="#1A1919" mask="url(#mask-4)"></path>
                                <polyline id="Fill-5" fill="#1A1919" mask="url(#mask-4)" points="60.695826 2.6768826 58.772668 0.0465746179 47.1601469 0.0465746179 47.1601469 11.4639605 52.5925551 11.4639605 52.5925551 0.182781788 60.8386941 11.4639605 66.1290897 11.4639605 66.1290897 0.0465746179 60.695826 0.0465746179 60.695826 2.6768826"></polyline>
                                <path d="M83.6359874,0.0465746179 C83.7360806,0.480156006 83.7856995,0.942471274 83.7856995,1.42983219 C83.7856995,4.48299996 81.7701477,6.61891366 78.8571792,6.61891366 C75.9399333,6.61891366 73.9243815,4.48299996 73.9243815,1.42983219 C73.9243815,0.942471274 73.9740004,0.480156006 74.0740936,0.0465746179 L68.3593713,0.0465746179 C68.3054749,0.49448006 68.2772435,0.956795328 68.2772435,1.42983219 C68.2772435,7.43598513 72.6659449,11.8366432 78.8571792,11.8366432 C85.0441361,11.8366432 89.4328375,7.43598513 89.4328375,1.42983219 C89.4328375,0.956795328 89.4046061,0.49448006 89.3507097,0.0465746179 L83.6359874,0.0465746179" id="Fill-6" fill="#1A1919" mask="url(#mask-4)"></path>
                            </g>
                            <polyline id="Fill-8" fill="#1A1919" points="158.301942 34.0895325 154.634928 48.385187 153.345016 43.6033878 148.194773 43.6033878 151.446928 54.9220246 157.851157 54.9220246 163.819142 34.0895325 158.301942 34.0895325"></polyline>
                            <polyline id="Fill-9" fill="#1A1919" points="141.416371 48.3452074 140.205545 43.5588471 134.937733 43.5588471 138.159258 54.9220246 144.503172 54.9220246 147.721308 43.5588471 142.690746 43.5588471 141.416371 48.3452074"></polyline>
                            <path d="M19.8855606,24.6058785 C17.0139958,24.6058785 15.0293071,22.4681052 15.0293071,19.4120949 C15.0293071,16.3560846 17.0139958,14.2183113 19.8855606,14.2183113 C22.7570413,14.2183113 24.7418142,16.3560846 24.7418142,19.4120949 C24.7418142,22.4681052 22.7570413,24.6058785 19.8855606,24.6058785 Z M19.8855606,8.99584886 C13.7907299,8.99584886 9.46931459,13.4004501 9.46931459,19.4120949 C9.46931459,25.423568 13.7907299,29.8283409 19.8855606,29.8283409 C25.9803071,29.8283409 30.3018067,25.423568 30.3018067,19.4120949 C30.3018067,13.4004501 25.9803071,8.99584886 19.8855606,8.99584886 L19.8855606,8.99584886 Z" id="Fill-10" fill="#1A1919"></path>
                            <polyline id="Fill-11" fill="#1A1919" points="68.6525307 24.554071 58.4551809 24.554071 58.4551809 21.6990564 67.9384898 21.6990564 67.9384898 16.8979972 58.4551809 16.8979972 58.4551809 14.2703738 68.6525307 14.2703738 68.6525307 9.46931459 53.0281617 9.46931459 53.0281617 29.3548752 68.6525307 29.3548752 68.6525307 24.554071"></polyline>
                            <path d="M76.9544968,14.3128768 L80.4036171,14.3128768 C81.7403974,14.3128768 82.7463801,14.8812276 82.7463801,16.0884841 C82.7463801,17.2958257 81.7403974,17.8497254 80.4036171,17.8497254 L76.9544968,17.8497254 L76.9544968,14.3128768 Z M76.9544968,22.2956291 L77.2563088,22.2956291 L82.0995786,29.3548752 L88.5380914,29.3548752 L83.0624699,22.0540418 C86.4686708,21.3723779 88.265437,19.1564391 88.265437,16.0884841 C88.265437,12.0687159 85.5776846,9.46931459 80.4612443,9.46931459 L71.4933251,9.46931459 L71.4933251,29.3548752 L76.9544968,29.3548752 L76.9544968,22.2956291 L76.9544968,22.2956291 Z" id="Fill-12" fill="#1A1919"></path>
                            <polyline id="Fill-13" fill="#1A1919" points="106.056323 24.554071 95.8594567 24.554071 95.8594567 21.6990564 105.342628 21.6990564 105.342628 16.8979972 95.8594567 16.8979972 95.8594567 14.2703738 106.056323 14.2703738 106.056323 9.46931459 90.4319543 9.46931459 90.4319543 29.3548752 106.056323 29.3548752 106.056323 24.554071"></polyline>
                            <path d="M113.77855,24.3978298 L113.77855,14.426615 L116.991489,14.426615 C120.21792,14.426615 121.796561,16.5003387 121.796561,19.4122224 C121.796561,22.2814331 120.21792,24.3978298 116.991489,24.3978298 L113.77855,24.3978298 Z M127.362281,19.4122224 C127.362281,13.4180177 123.290029,9.46931459 117.132318,9.46931459 L108.423652,9.46931459 L108.423652,29.3548752 L117.132318,29.3548752 C123.290029,29.3548752 127.362281,25.4062571 127.362281,19.4122224 L127.362281,19.4122224 Z" id="Fill-14" fill="#1A1919"></path>
                            <g id="Group-18">
                                <mask id="mask-6" fill="white">
                                    <use xlink:href="#path-5"></use>
                                </mask>
                                <g id="Clip-16"></g>
                                <path d="M31.3668778,10.9341455 C33.8507919,15.0702237 36.3076298,24.1585755 37.6276122,29.0413092 L37.7809297,29.6082206 L37.7775131,29.6142861 L37.7825525,29.6142861 L37.7842608,29.6206079 L37.8075787,29.6142861 L44.1714074,29.6142861 L51.450016,9.6296342 L45.7840169,9.6296342 L41.2691373,23.1903154 C39.8084787,18.0457397 37.8638663,11.9157326 35.7078552,8.32623348 C35.0393227,7.21291381 34.3916311,6.37604461 33.7278817,5.7673581 L30.3067238,9.50191682 C30.4727679,9.65389623 30.8314197,10.0425159 31.3668778,10.9341455" id="Fill-15" fill="#1A1919" mask="url(#mask-6)"></path>
                                <path d="M150.480042,39.2210251 L152.074714,39.2210251 L153.369585,34.141974 L150.480042,34.141974 L150.480042,34.1491501 L19.9173503,34.1491501 C11.1717624,34.1491501 5.06400385,28.1753939 5.06400385,19.6220883 C5.06400385,11.0686973 11.1717624,5.09468475 19.9173503,5.09468475 C22.9677276,5.09468475 25.8219098,5.84902888 28.1714682,7.2756192 L30.799475,2.94646987 C27.6576197,1.03848326 23.894551,0.0300712494 19.9173503,0.0300712494 C8.37651561,0.0300712494 0,8.26976446 0,19.6220883 C0,30.9744121 8.37651561,39.2136781 19.9173503,39.2136781 L150.480042,39.2136781 L150.480042,39.2210251" id="Fill-17" fill="#1A1919" mask="url(#mask-6)"></path>
                            </g>
                        </g>
                    </g>
                </g>
            </g>
        </g>
    </g>
</svg>