<?xml version="1.0" encoding="UTF-8"?>
<svg width="35px" height="15px" viewBox="0 0 35 15" version="1.1" xmlns="http://www.w3.org/2000/svg" xmlns:xlink="http://www.w3.org/1999/xlink">
    <!-- Generator: Sketch 47.1 (45422) - http://www.bohemiancoding.com/sketch -->
    <title>if_26_Media_social_website_wave_2657560</title>
    <desc>Created with Sketch.</desc>
    <defs></defs>
    <g id="Welcome" stroke="none" stroke-width="1" fill="none" fill-rule="evenodd">
        <g id="Desktop" transform="translate(-190.000000, -30.000000)" fill="#F5F5F5">
            <g id="if_26_Media_social_website_wave_2657560" transform="translate(190.000000, 30.000000)">
                <path d="M6.38585531,14.5490333 L6.38585531,14.5490333 C5.76492483,14.5490333 5.25040295,14.0346182 5.25040295,13.3988376 L5.25040295,8.78138829 C5.25040295,8.14507344 5.76492483,7.63012421 6.38585531,7.63012421 C7.02174282,7.63012421 7.56767446,8.14507344 7.56767446,8.78138829 L7.56767446,13.3988376 C7.56767446,14.0345114 7.02174282,14.5490333 6.38585531,14.5490333 L6.38585531,14.5490333 Z M11.0201847,14.5490333 L11.0201847,14.5490333 C10.3691265,14.5490333 9.85407039,14.0346182 9.85407039,13.3988376 L9.85407039,6.47939431 C9.85407039,5.85867751 10.3691265,5.31360055 11.0201847,5.31360055 C11.6560722,5.31360055 12.1707009,5.85878435 12.1707009,6.47939431 L12.1707009,13.3988376 C12.1707009,14.0345114 11.6560722,14.5490333 11.0201847,14.5490333 L11.0201847,14.5490333 Z M15.6237453,14.5490333 L15.6237453,14.5490333 C14.9878578,14.5490333 14.4728017,13.9127184 14.4728017,13.095744 L14.4728017,4.45132768 C14.4728017,3.66351947 14.9878578,3.02784563 15.6237453,3.02784563 C16.2592054,3.02784563 16.7747957,3.66351947 16.7747957,4.45132768 L16.7747957,13.095744 C16.7747957,13.9127184 16.2592054,14.5490333 15.6237453,14.5490333 L15.6237453,14.5490333 Z M30.0256572,14.5490333 C32.2668615,14.5490333 34.0688633,12.7776934 34.0688633,10.5063614 C34.0688633,8.26590489 32.2668615,6.47950115 30.0256572,6.47950115 C29.5861341,6.47950115 29.1621023,6.53986346 28.7231134,6.72212557 C28.0111587,2.9528468 24.7252058,0.151608484 20.8180018,0.151608484 C20.2279469,0.151608484 19.6518875,0.197441102 19.0914262,0.317738369 L19.0914262,14.5490333 L25.7705954,14.5490333 L30.0256572,14.5490333 L30.0256572,14.5490333 Z M1.78218786,14.5490333 L1.78218786,14.5490333 C1.16136422,14.5490333 0.64620132,14.0346182 0.64620132,13.3988376 L0.64620132,11.0973778 C0.64620132,10.4617039 1.16136422,9.94622053 1.78218786,9.94622053 C2.41807537,9.94622053 2.93313143,10.4617039 2.93313143,11.0973778 L2.93313143,13.3988376 C2.93323827,14.0345114 2.41807537,14.5490333 1.78218786,14.5490333 L1.78218786,14.5490333 Z" id="Shape"></path>
            </g>
        </g>
    </g>
</svg>