<?xml version="1.0" encoding="UTF-8"?>
<svg width="389px" height="103px" viewBox="0 0 389 103" version="1.1" xmlns="http://www.w3.org/2000/svg" xmlns:xlink="http://www.w3.org/1999/xlink">
    <!-- Generator: Sketch 47.1 (45422) - http://www.bohemiancoding.com/sketch -->
    <title>SPACEBOY</title>
    <desc>Created with Sketch.</desc>
    <defs></defs>
    <g id="Welcome" stroke="none" stroke-width="1" fill="none" fill-rule="evenodd">
        <g id="Desktop" transform="translate(-18.000000, -104.000000)" fill="#FFFFFF">
            <path d="M38.9437401,183.164539 C49.9417401,183.164539 58.6777401,177.522799 58.6777401,166.421059 C58.6777401,155.064259 48.98,151.382659 41.4350603,148.907719 C36.5834606,147.306379 32.8028005,146.073979 32.8028005,143.016379 C32.8028005,141.045319 34.4150603,139.495459 37.7324002,139.495459 C40.6652007,139.495459 42.3289409,140.53052 42.9529409,142.57958 C43.4053411,143.82758 43.9568017,144.48824 45.1993411,144.48824 L54.9805406,144.48824 C56.3377401,144.48824 57.1902796,143.713701 57.1122796,142.278501 C56.1037401,131.077701 47.4044002,126.23624 37.7324002,126.23624 C27.6134606,126.23624 18.8673202,131.87798 18.8673202,142.97972 C18.8673202,154.44026 28.5806601,158.256799 36.1568005,160.727059 C40.8781404,162.2192 44.7414803,163.404799 44.7414803,166.202659 C44.7414803,168.282919 43.1034803,169.905319 39.0162808,169.905319 C35.2512204,169.905319 33.0929606,168.828919 32.3964211,166.530259 C32.0165615,165.209719 31.4292216,164.549059 30.1500221,164.549059 L20.4054827,164.549059 C19.0482831,164.549059 18.1957437,165.323599 18.2737437,166.758798 C19.2822831,178.287198 28.2522831,183.164538 38.9437437,183.164538 L38.9437401,183.164539 Z M85.431739,127.400001 C96.3049385,127.400001 104.905999,135.309201 104.905999,146.52014 C104.905999,157.73108 96.3049385,165.64028 85.431739,165.64028 L78.1519988,165.64028 L78.1519988,179.867479 C78.1519988,181.224679 77.3774594,181.999218 76.0202599,181.999218 L66.3482599,181.999218 C64.9910603,181.999218 64.2165209,181.224679 64.2165209,179.867479 L64.2165209,129.531739 C64.2165209,128.174539 64.9910603,127.4 66.3482599,127.4 L85.4317401,127.4 L85.431739,127.400001 Z M85.431739,152.338942 C88.5618793,152.338942 90.969739,149.952142 90.969739,146.520142 C90.969739,143.088142 88.5618793,140.701341 85.431739,140.701341 L78.1519988,140.701341 L78.1519988,152.338941 L85.431739,152.338941 L85.431739,152.338942 Z M152.46494,179.5976 L152.463377,179.5976 C152.968037,181.074139 152.229377,181.999999 150.679517,181.999999 L140.030177,181.999999 C138.828978,181.999999 137.976438,181.459459 137.627778,180.18026 L135.914898,174.14852 L118.353978,174.14852 L116.641097,180.18026 C116.292437,181.459459 115.439898,181.999999 114.238698,181.999999 L103.589358,181.999999 C102.039499,181.999999 101.300839,181.074139 101.805499,179.5976 L118.232299,129.18386 C118.580959,127.98266 119.475619,127.4 120.676819,127.4 L133.593619,127.4 C134.794819,127.4 135.689479,127.98266 136.038139,129.18386 L152.46494,179.5976 Z M121.780517,162.08426 L132.488357,162.08426 L127.134437,143.234 L121.780517,162.08426 Z M180.7688,183.164539 L180.769581,183.166882 C164.274921,183.166882 152.304261,170.806222 152.304261,154.701562 C152.304261,138.596901 164.274921,126.236241 180.769581,126.236241 C193.467981,126.236241 204.294382,134.327181 207.273981,146.006121 C207.622642,147.47798 206.811442,148.37264 205.376243,148.37264 L195.080243,148.37264 C193.879043,148.37264 193.182504,147.78998 192.641964,146.666781 C190.639704,142.454781 186.079044,139.85972 180.769584,139.85972 C172.007843,139.85972 166.241304,145.969461 166.241304,154.7 C166.241304,163.430539 172.007843,169.54028 180.769584,169.54028 C186.114924,169.54028 190.675584,166.90934 192.641183,162.69734 C193.181723,161.57414 193.878262,160.99148 195.079462,160.99148 L205.412122,160.99148 C206.847321,160.99148 207.658521,161.84402 207.309861,163.237879 C204.37706,174.953479 193.581861,183.164539 180.7688,183.164539 Z M244.39574,168.896 L226.976,168.896 L226.976,160.63814 L242.05574,160.63814 C243.41294,160.63814 244.187479,159.863601 244.187479,158.506401 L244.187479,150.342142 C244.187479,148.984942 243.41294,148.210403 242.05574,148.210403 L226.976,148.210403 L226.976,140.504002 L244.00574,140.504002 C245.36294,140.504002 246.137479,139.729463 246.137479,138.372263 L246.137479,129.532523 C246.137479,128.175324 245.36294,127.400784 244.00574,127.400784 L215.17226,127.400784 C213.81506,127.400784 213.040521,128.175324 213.040521,129.532523 L213.040521,179.868263 C213.040521,181.225463 213.81506,182.000002 215.17226,182.000002 L244.39574,182.000002 C245.75294,182.000002 246.527479,181.225463 246.527479,179.868263 L246.527479,171.028523 C246.527479,169.671324 245.75294,168.896784 244.39574,168.896784 L244.39574,168.896 Z M291.24956,149.17994 L291.250341,149.179158 C296.931861,152.039418 300.505041,157.632017 300.505041,164.584158 C300.505041,174.412158 293.173041,181.999218 282.902781,181.999218 L255.108261,181.999218 C253.751062,181.999218 252.976522,181.224679 252.976522,179.867479 L252.976522,129.531739 C252.976522,128.174539 253.751062,127.4 255.108261,127.4 L276.350001,127.4 C285.944001,127.4 293.484261,133.43174 293.484261,142.24574 C293.484261,144.81194 292.648881,147.2081 291.24956,149.17994 Z M276.204921,140.045357 L266.912782,140.046137 L266.912782,147.118397 L278.364743,147.118397 C279.370942,146.276777 279.876382,145.019418 279.876382,143.826017 C279.876382,141.688818 278.487981,140.045357 276.204921,140.045357 Z M280.978522,169.353076 C284.738122,169.353076 286.568782,167.132416 286.568782,163.986676 C286.568782,160.767616 284.738122,158.620276 281.056522,158.620276 L266.912782,158.620276 L266.912782,169.353076 L280.978522,169.353076 Z M332.504539,183.164539 C316.608139,183.164539 303.857479,170.803879 303.857479,154.699219 C303.857479,138.594559 316.608139,126.233899 332.504539,126.233899 C348.40094,126.233899 361.1516,138.594559 361.1516,154.699219 C361.1516,170.803879 348.40094,183.164539 332.504539,183.164539 Z M332.504539,169.54028 C340.850539,169.54028 347.21534,163.430539 347.21534,154.7 C347.21534,145.969461 340.850539,139.85972 332.504539,139.85972 C324.158539,139.85972 317.793739,145.969461 317.793739,154.7 C317.793739,163.430539 324.158539,169.54028 332.504539,169.54028 Z M404.91506,127.4 L404.913501,127.4 C406.541361,127.4 407.2379,128.48186 406.385361,129.958399 L390.198021,158.253679 L390.198021,179.868259 C390.198021,181.225458 389.423481,181.999998 388.066282,181.999998 L378.394282,181.999998 C377.037082,181.999998 376.262543,181.225458 376.262543,179.868259 L376.262543,158.253679 L360.075203,129.958399 C359.222664,128.48186 359.919203,127.4 361.547063,127.4 L372.586403,127.4 C373.750942,127.4 374.562142,127.90466 375.066802,128.94986 L383.231062,144.95936 L391.395321,128.94986 C391.899981,127.90466 392.711181,127.4 393.87572,127.4 L404.91506,127.4 Z M28.5163814,108.569626 C23.1439542,108.569626 18.4098353,110.089641 19.059964,105.921515 C19.0067716,105.169451 18.9594895,104.422684 19.6509901,104.332648 C143.589161,104.332648 270.051013,104.332648 394.952556,104.332648 C397.884046,104.332648 402.765921,102.918557 405,105.921515 C404.881795,110.576894 397.895275,108.569626 395.543583,108.569626 C273.484875,108.569626 153.027848,108.569626 28.5163814,108.569626 Z M394.952666,202.333013 C397.884124,202.333013 402.765946,200.917371 405,203.923623 C404.899527,208.568204 397.878214,206.57464 395.543686,206.57464 C274.154166,206.57464 151.901757,206.57464 28.5205014,206.57464 C23.0358393,206.57464 18.3963353,208.091021 19.0641874,203.923623 C19.0109957,203.170734 18.9637141,202.423148 19.6552071,202.333013 C143.592022,202.333013 270.05249,202.333013 394.952666,202.333013 Z" id="SPACEBOY"></path>
        </g>
    </g>
</svg>