<?xml version="1.0" encoding="UTF-8"?>
<svg width="27px" height="27px" viewBox="0 0 27 27" version="1.1" xmlns="http://www.w3.org/2000/svg" xmlns:xlink="http://www.w3.org/1999/xlink">
    <!-- Generator: Sketch 47.1 (45422) - http://www.bohemiancoding.com/sketch -->
    <title>if_24_Media_social_website_wave_2657558</title>
    <desc>Created with Sketch.</desc>
    <defs></defs>
    <g id="Welcome" stroke="none" stroke-width="1" fill="none" fill-rule="evenodd">
        <g id="Desktop" transform="translate(-130.000000, -24.000000)" fill-rule="nonzero" fill="#FFFFFF">
            <g id="if_24_Media_social_website_wave_2657558" transform="translate(130.000000, 24.000000)">
                <path d="M13.3496799,0.623596493 C6.34914814,0.623596493 0.618788876,6.35235321 0.618788876,13.3545943 C0.618788876,20.3561944 6.34914814,26.0865537 13.3496799,26.0865537 C20.3529893,26.0865537 26.0805709,20.3561944 26.0805709,13.3545943 C26.0805709,6.35235321 20.4166636,0.623596493 13.3496799,0.623596493 Z M19.2062124,19.0201042 C18.9526907,19.4020427 18.5066506,19.5303526 18.1242848,19.2758694 C15.1317033,17.4284624 11.3755654,17.0460965 6.92082724,18.0643499 C6.47585556,18.1927667 6.0933829,17.8746092 5.96667547,17.4921366 C5.83932703,17.0460965 6.15705712,16.6653332 6.53995712,16.5379848 C11.3755654,15.4548821 15.577316,15.9003879 18.8874139,17.939245 C19.3346292,18.1290924 19.3976624,18.6393409 19.2062124,19.0201042 Z M20.7342868,15.5185563 C20.4165567,15.9651305 19.8443434,16.154978 19.3976624,15.8362864 C15.9607502,13.7365328 10.7390369,13.0989359 6.73087295,14.374557 C6.22115868,14.5013713 5.64947957,14.2456061 5.52106277,13.736426 C5.39488953,13.2277801 5.64947957,12.6549258 6.15705712,12.52715 C10.8037794,11.1269582 16.5324293,11.8270541 20.4786284,14.2456061 C20.8632378,14.4365219 21.0530853,15.0741188 20.7342868,15.5185563 Z M22.5169513,11.6354972 C22.1971913,12.0816441 21.4338485,12.2736283 20.8632378,11.9542957 C16.786592,9.53617103 9.97740346,9.28061947 6.0933829,10.4909638 C5.45802957,10.6818796 4.8198985,10.2995138 4.63069206,9.72612533 C4.4369985,9.09023782 4.8198985,8.45317512 5.39499636,8.26225929 C9.91383608,6.92510068 17.3605147,7.18033174 22.0719796,9.98071537 C22.6448339,10.2995138 22.8352156,11.0638181 22.5169513,11.6354972 Z" id="Shape"></path>
            </g>
        </g>
    </g>
</svg>